<?xml version="1.0" encoding="UTF-8"?>
<!DOCTYPE svg PUBLIC "-//W3C//DTD SVG 1.1//EN" "http://www.w3.org/Graphics/SVG/1.1/DTD/svg11.dtd">
<!-- Creator: CorelDRAW Home & Student X8 -->
<svg xmlns="http://www.w3.org/2000/svg" xml:space="preserve" width="4.4334mm" height="4.4334mm" version="1.1" style="shape-rendering:geometricPrecision; text-rendering:geometricPrecision; image-rendering:optimizeQuality; fill-rule:evenodd; clip-rule:evenodd"
viewBox="0 0 443 443"
 xmlns:xlink="http://www.w3.org/1999/xlink">
 <defs>
  <style type="text/css">
   <![CDATA[
    .fil0 {fill:#2F3031;fill-rule:nonzero}
   ]]>
  </style>
 </defs>
 <g id="Capa_x0020_1">
  <metadata id="CorelCorpID_0Corel-Layer"/>
  <path class="fil0" d="M229 165c0,-24 12,-38 34,-38 8,0 15,2 22,6l13 -35c-10,-6 -25,-9 -41,-9 -25,0 -45,7 -58,21 -13,12 -20,32 -20,54l0 15 -34 0 0 38 34 0 0 137 51 0 0 -137 37 0 14 -38 -52 0 0 -14zm-7 -165c61,0 116,25 156,65 41,40 65,96 65,157 0,61 -24,116 -65,156 -40,41 -95,65 -156,65 -61,0 -117,-24 -157,-65 -40,-40 -65,-95 -65,-156 0,-61 25,-117 65,-157 40,-40 96,-65 157,-65zm142 79c-36,-36 -87,-59 -142,-59 -56,0 -106,23 -143,59 -36,37 -59,87 -59,143 0,55 23,106 59,142 37,37 87,59 143,59 55,0 106,-22 142,-59 37,-36 59,-87 59,-142 0,-56 -22,-106 -59,-143z"/>
 </g>
</svg>
