<?xml version="1.0" encoding="UTF-8"?>
<!DOCTYPE svg PUBLIC "-//W3C//DTD SVG 1.1//EN" "http://www.w3.org/Graphics/SVG/1.1/DTD/svg11.dtd">
<!-- Creator: CorelDRAW Home & Student X8 -->
<svg xmlns="http://www.w3.org/2000/svg" xml:space="preserve" width="4.4334mm" height="4.4334mm" version="1.1" style="shape-rendering:geometricPrecision; text-rendering:geometricPrecision; image-rendering:optimizeQuality; fill-rule:evenodd; clip-rule:evenodd"
viewBox="0 0 101 101"
 xmlns:xlink="http://www.w3.org/1999/xlink">
 <defs>
  <style type="text/css">
   <![CDATA[
    .fil0 {fill:#2F3031;fill-rule:nonzero}
   ]]>
  </style>
 </defs>
 <g id="Capa_x0020_1">
  <metadata id="CorelCorpID_0Corel-Layer"/>
  <path class="fil0" d="M24 36c0,-6 5,-11 10,-11l33 0c5,0 10,5 10,11l0 29c0,6 -5,11 -10,11l-33 0c-5,0 -10,-5 -10,-11l0 -29zm43 -16l-33 0c-9,0 -16,7 -16,16l0 29c0,9 7,16 16,16l33 0c9,0 16,-7 16,-16l0 -29c0,-9 -7,-16 -16,-16zm-16 21c5,0 9,4 9,10 0,5 -4,9 -9,9 -6,0 -10,-4 -10,-9 0,-6 4,-10 10,-10zm0 25c8,0 15,-7 15,-15 0,-9 -7,-16 -15,-16 -9,0 -16,7 -16,16 0,8 7,15 16,15zm16 -28c2,0 4,-2 4,-4 0,-2 -2,-4 -4,-4 -2,0 -4,2 -4,4 0,2 2,4 4,4zm-17 -38c14,0 27,6 36,15 9,9 15,22 15,35 0,14 -6,27 -15,36 -9,9 -22,15 -36,15 -13,0 -26,-6 -35,-15 -9,-9 -15,-22 -15,-36 0,-13 6,-26 15,-35 9,-9 22,-15 35,-15zm33 18c-8,-8 -20,-13 -33,-13 -12,0 -24,5 -32,13 -8,8 -13,20 -13,32 0,13 5,25 13,33 8,8 20,13 32,13 13,0 25,-5 33,-13 8,-8 13,-20 13,-33 0,-12 -5,-24 -13,-32z"/>
 </g>
</svg>
