<?xml version="1.0" encoding="UTF-8"?>
<!DOCTYPE svg PUBLIC "-//W3C//DTD SVG 1.1//EN" "http://www.w3.org/Graphics/SVG/1.1/DTD/svg11.dtd">
<!-- Creator: CorelDRAW Home & Student X8 -->
<svg xmlns="http://www.w3.org/2000/svg" xml:space="preserve" width="4.2332mm" height="4.0534mm" version="1.1" style="shape-rendering:geometricPrecision; text-rendering:geometricPrecision; image-rendering:optimizeQuality; fill-rule:evenodd; clip-rule:evenodd"
viewBox="0 0 423 405"
 xmlns:xlink="http://www.w3.org/1999/xlink">
 <defs>
  <style type="text/css">
   <![CDATA[
    .fil0 {fill:#2F3031;fill-rule:nonzero}
   ]]>
  </style>
 </defs>
 <g id="Capa_x0020_1">
  <metadata id="CorelCorpID_0Corel-Layer"/>
  <path class="fil0" d="M37 106c0,-38 31,-69 69,-69l211 0c38,0 69,31 69,69l0 193c0,38 -31,69 -69,69l-211 0c-38,0 -69,-31 -69,-69l0 -193zm280 -106l-211 0c-58,0 -106,48 -106,106l0 193c0,59 48,106 106,106l211 0c59,0 106,-47 106,-106l0 -193c0,-58 -47,-106 -106,-106zm-105 141c33,0 61,28 61,62 0,33 -28,61 -61,61 -34,0 -61,-28 -61,-61 0,-34 27,-62 61,-62zm0 160c54,0 98,-44 98,-98 0,-55 -44,-99 -98,-99 -55,0 -99,44 -99,99 0,54 44,98 99,98zm107 -181c15,0 27,-12 27,-27 0,-14 -12,-26 -27,-26 -14,0 -26,12 -26,26 0,15 12,27 26,27z"/>
 </g>
</svg>
