<?xml version="1.0" encoding="UTF-8"?>
<!DOCTYPE svg PUBLIC "-//W3C//DTD SVG 1.1//EN" "http://www.w3.org/Graphics/SVG/1.1/DTD/svg11.dtd">
<!-- Creator: CorelDRAW Home & Student X8 -->
<svg xmlns="http://www.w3.org/2000/svg" xml:space="preserve" width="4.4334mm" height="4.4334mm" version="1.1" style="shape-rendering:geometricPrecision; text-rendering:geometricPrecision; image-rendering:optimizeQuality; fill-rule:evenodd; clip-rule:evenodd"
viewBox="0 0 61 61"
 xmlns:xlink="http://www.w3.org/1999/xlink">
 <defs>
  <style type="text/css">
   <![CDATA[
    .fil0 {fill:#2F3031;fill-rule:nonzero}
   ]]>
  </style>
 </defs>
 <g id="Capa_x0020_1">
  <metadata id="CorelCorpID_0Corel-Layer"/>
  <path class="fil0" d="M50 19c-1,1 -2,1 -4,1 0,0 0,0 0,0 1,-1 2,-2 3,-4l0 0c0,0 0,0 0,0 -1,1 -3,2 -4,2 -1,0 -1,0 -1,0 0,0 0,0 0,0 -1,-1 -2,-1 -2,-2 -1,0 -2,0 -3,0 0,0 0,0 -1,0 0,0 -1,0 -2,0 0,0 0,0 -1,0 -2,2 -4,4 -4,7 0,1 0,1 0,2 0,0 -1,0 -2,0 0,-1 0,-1 -1,-1 -1,0 -3,-1 -5,-1 -1,-1 -3,-2 -4,-3 -1,-1 -2,-2 -3,-3 0,0 0,0 0,0 0,0 0,0 0,0 -1,1 -1,2 -1,4 0,0 0,0 0,0 0,1 0,2 1,3 0,0 0,0 0,1 1,1 2,2 3,2 0,0 0,0 0,0 0,0 0,0 0,0 -1,0 -1,0 -1,0 -1,0 -2,0 -3,-1 0,0 0,0 0,1 0,2 1,3 2,5 1,1 3,1 4,2 0,0 -1,0 -1,0 -1,0 -2,0 -2,0 1,2 3,5 6,5 -2,2 -4,3 -7,3 -2,0 -4,-1 -5,-1 3,3 8,5 13,5 12,0 21,-10 21,-21 0,-1 0,-1 0,-2 2,-1 3,-2 4,-4l0 0zm-19 -19c8,0 16,3 21,9 6,6 9,13 9,22 0,8 -3,16 -9,21 -5,6 -13,9 -21,9 -9,0 -16,-3 -22,-9 -6,-5 -9,-13 -9,-21 0,-9 3,-16 9,-22 6,-6 13,-9 22,-9zm19 11c-5,-5 -12,-8 -19,-8 -8,0 -15,3 -20,8 -5,5 -8,12 -8,20 0,7 3,14 8,19 5,5 12,9 20,9 7,0 14,-4 19,-9 5,-5 9,-12 9,-19 0,-8 -4,-15 -9,-20z"/>
 </g>
</svg>
