<?xml version="1.0" encoding="UTF-8"?>
<!DOCTYPE svg PUBLIC "-//W3C//DTD SVG 1.1//EN" "http://www.w3.org/Graphics/SVG/1.1/DTD/svg11.dtd">
<!-- Creator: CorelDRAW Home & Student X8 -->
<svg xmlns="http://www.w3.org/2000/svg" xml:space="preserve" width="4.2333mm" height="3.2984mm" version="1.1" style="shape-rendering:geometricPrecision; text-rendering:geometricPrecision; image-rendering:optimizeQuality; fill-rule:evenodd; clip-rule:evenodd"
viewBox="0 0 423 330"
 xmlns:xlink="http://www.w3.org/1999/xlink">
 <defs>
  <style type="text/css">
   <![CDATA[
    .fil0 {fill:#2F3031;fill-rule:nonzero}
   ]]>
  </style>
 </defs>
 <g id="Capa_x0020_1">
  <metadata id="CorelCorpID_0Corel-Layer"/>
  <path class="fil0" d="M423 34c-10,10 -23,16 -39,16 -2,0 -4,0 -5,0 16,-10 28,-25 34,-43l0 0c1,-2 2,-4 2,-7 -12,13 -30,23 -49,25 -3,0 -6,0 -9,0 -1,0 -2,0 -3,0 -6,-7 -14,-12 -23,-17 -9,-4 -20,-7 -32,-7 -1,0 -1,0 -2,0 -10,0 -19,1 -28,4 -2,1 -4,2 -6,3 -27,13 -46,40 -46,72 0,7 1,13 2,19 -8,0 -16,-1 -24,-2 -3,-1 -5,-1 -8,-2 -20,-3 -40,-10 -58,-19 -17,-8 -32,-18 -45,-29 -12,-10 -23,-20 -32,-32 -1,0 -1,-1 -1,-1 -1,0 -1,1 -2,2 -7,12 -10,25 -10,39 0,1 0,1 0,2 0,11 2,21 6,30 2,4 4,8 6,12 8,11 17,20 29,26 0,0 1,1 1,1 -1,0 -1,0 -2,0 -3,1 -5,1 -7,1 -13,0 -24,-4 -33,-11 0,1 0,2 0,3 0,22 9,43 24,57 12,12 28,19 45,21 -6,3 -13,4 -20,4 -7,0 -15,-2 -21,-4 10,32 39,55 73,56 -21,22 -51,36 -84,36 -20,0 -39,-6 -56,-15 40,35 93,56 150,56 126,0 229,-103 229,-229 0,-7 0,-14 -1,-21 21,-8 37,-25 45,-46z"/>
 </g>
</svg>
